<svg width="60" height="61" viewBox="0 0 60 61" fill="none" xmlns="http://www.w3.org/2000/svg">
<path d="M28.2121 3.84818C28.9499 2.3767 31.0501 2.3767 31.7879 3.84818L35.0065 10.2678C35.5061 11.2643 36.724 11.66 37.7139 11.1475L44.0911 7.84575C45.5529 7.08894 47.252 8.32342 46.984 9.94752L45.8145 17.0329C45.633 18.1328 46.3857 19.1687 47.4878 19.336L54.5878 20.4133C56.2152 20.6602 56.8642 22.6577 55.6928 23.814L50.582 28.8589C49.7886 29.642 49.7886 30.9225 50.582 31.7056L55.6928 36.7504C56.8642 37.9068 56.2152 39.9042 54.5878 40.1512L47.4878 41.2285C46.3857 41.3957 45.633 42.4317 45.8145 43.5315L46.984 50.6169C47.252 52.241 45.5529 53.4755 44.0911 52.7187L37.7139 49.417C36.724 48.9045 35.5061 49.3002 35.0065 50.2967L31.7879 56.7163C31.0501 58.1878 28.9499 58.1878 28.2121 56.7163L24.9935 50.2967C24.4939 49.3002 23.276 48.9045 22.2861 49.417L15.9089 52.7187C14.4471 53.4755 12.748 52.241 13.016 50.6169L14.1855 43.5315C14.367 42.4317 13.6143 41.3957 12.5122 41.2285L5.41221 40.1512C3.78477 39.9042 3.13576 37.9068 4.30724 36.7504L9.41803 31.7056C10.2114 30.9225 10.2114 29.642 9.41803 28.8589L4.30724 23.814C3.13577 22.6577 3.78477 20.6602 5.41221 20.4133L12.5122 19.336C13.6143 19.1687 14.367 18.1328 14.1855 17.0329L13.016 9.94752C12.748 8.32342 14.4471 7.08894 15.9089 7.84575L22.2861 11.1475C23.276 11.66 24.4939 11.2643 24.9935 10.2678L28.2121 3.84818Z" fill="#D7FD44"/>
<path d="M27.7455 33.6907L22.8362 28.4756L22.8362 28.4756C22.4229 28.0369 21.732 28.0161 21.2933 28.429L21.2933 28.4291C20.8546 28.8423 20.8334 29.5332 21.2467 29.9719L26.9112 35.9888L27.7455 33.6907ZM27.7455 33.6907L37.292 24.5359C37.292 24.5359 37.292 24.5359 37.292 24.5359C37.7264 24.119 38.418 24.1328 38.8349 24.5683C39.2522 25.0034 39.2376 25.6943 38.8025 26.1115L28.4611 36.0288L28.4265 35.9927L28.4611 36.0288C28.2577 36.2238 27.9867 36.3322 27.7058 36.3322C27.6973 36.3322 27.6873 36.3322 27.6772 36.3318L27.6791 36.2819M27.7455 33.6907L26.9477 35.9545C27.1379 36.1569 27.4014 36.2746 27.6791 36.2819M27.6791 36.2819L27.6778 36.3319C27.3868 36.3242 27.1107 36.2009 26.9113 35.9888L27.6791 36.2819Z" fill="black" stroke="black" stroke-width="0.1"/>
</svg>
