<svg width="43" height="42" viewBox="0 0 43 42" fill="none" xmlns="http://www.w3.org/2000/svg">
<g id="Vector">
<path d="M41.8596 31.346L41.8379 31.291C41.7829 31.0193 41.5613 30.2061 40.648 26.9565C40.323 25.7983 39.993 24.6217 39.7481 23.7384C39.2831 22.0519 37.3167 19.1424 35.5802 16.5758C34.7902 15.4076 34.0436 14.3011 33.5454 13.4661H33.5437C34.367 10.5264 33.7754 7.37009 31.9439 4.92852C30.1124 2.48541 27.2476 1.03391 24.1947 1.00059C21.1417 0.967256 18.2471 2.35546 16.3623 4.75689C14.4775 7.15831 13.8175 10.3013 14.5758 13.2578C15.334 16.2158 17.4238 18.6525 20.232 19.8521C23.04 21.0504 26.2465 20.8737 28.9061 19.3755L29.1877 19.9855L28.7994 27.0529C26.553 23.9649 23.2567 23.2799 18.9722 25.0181C16.1791 22.9117 12.6513 22.0251 9.19307 22.565C8.15483 22.735 7.10163 22.8167 6.04838 22.8067C4.70016 22.775 3.39865 23.2966 2.4454 24.2515C1.50218 25.1831 0.980546 26.4597 1.00056 27.7845L1.05055 31.8641C1.07722 34.7322 2.44207 37.4251 4.74183 39.1402C4.74683 39.1435 4.75017 39.1485 4.75517 39.1518C4.76017 39.1552 4.7635 39.1552 4.76683 39.1585C6.35336 40.3517 8.28648 40.9967 10.2711 40.9933L12.8742 41H12.8726C13.1042 41 13.3175 40.8817 13.4392 40.685L14.7974 38.5069C15.084 38.047 15.6506 37.8486 16.1622 38.0286C26.1977 41.4933 33.249 39.2635 37.9132 37.787C38.1882 37.702 38.4565 37.617 38.7165 37.5337C40.353 37.0237 41.4495 36.1988 41.9778 35.0789C42.7311 33.489 42.0745 31.8759 41.8596 31.346ZM15.629 10.8347C15.629 8.58828 16.5223 6.43365 18.1104 4.84362C19.7003 3.25543 21.855 2.36387 24.1015 2.36387C26.3496 2.36387 28.5043 3.25714 30.0926 4.84695C31.6808 6.43515 32.574 8.5899 32.5723 10.838C32.5723 13.0845 31.6808 15.2391 30.0909 16.8274C28.5027 18.4156 26.348 19.3088 24.1015 19.3088C21.8534 19.3072 19.7005 18.4122 18.1122 16.8241C16.524 15.2342 15.6307 13.0811 15.629 10.8347ZM40.7734 34.5124C40.4101 35.2806 39.5851 35.8689 38.3203 36.2622C38.0587 36.3439 37.7887 36.4289 37.5104 36.5188C33.0125 37.942 26.2147 40.0902 16.596 36.7705V36.7688C15.4961 36.3839 14.2779 36.8138 13.6646 37.8037L12.5047 39.6685L10.2732 39.6619C8.79506 39.6635 7.34518 39.2453 6.0953 38.457C6.85691 37.5071 8.21677 36.0406 9.31998 35.724C11.3915 35.1324 13.3946 31.6894 13.6161 31.2994V31.2978C13.7977 30.9778 13.6861 30.5712 13.3661 30.3895C13.0445 30.2079 12.6379 30.3195 12.4562 30.6395C11.7213 31.9327 10.1214 34.1075 8.95324 34.4408C7.38339 34.8891 5.78688 36.6956 5.02864 37.6521C3.36382 36.1806 2.40225 34.0709 2.38224 31.8479L2.33225 27.7683C2.31725 26.8034 2.69721 25.8752 3.38379 25.1969C4.08205 24.4987 5.03696 24.1171 6.02353 24.1404C7.15506 24.1537 8.28498 24.0687 9.40154 23.8837C12.6079 23.4038 15.8709 24.272 18.4123 26.2851C18.4273 26.2985 18.4439 26.3085 18.4589 26.3201C18.4739 26.3318 18.4906 26.3451 18.5089 26.3568C18.5273 26.3685 18.5523 26.3785 18.5706 26.3885C18.5906 26.3985 18.6073 26.4068 18.6256 26.4135C18.6439 26.4201 18.6656 26.4251 18.6873 26.4301C18.7089 26.4368 18.7306 26.4418 18.7522 26.4468C18.7689 26.4501 18.7872 26.4501 18.8039 26.4518L18.8056 26.4501C18.8306 26.4535 18.8572 26.4551 18.8839 26.4535C18.8972 26.4535 18.9122 26.4501 18.9272 26.4485L18.9256 26.4501C18.9556 26.4468 18.9855 26.4435 19.0139 26.4368C19.0255 26.4335 19.0355 26.4301 19.0472 26.4268C19.0739 26.4201 19.1005 26.4118 19.1255 26.4018C23.7416 24.4037 26.7962 25.4202 28.7395 29.5965C28.7428 29.6048 28.7495 29.6098 28.7528 29.6165C28.7762 29.6632 28.8045 29.7081 28.8378 29.7481L28.8528 29.7681L28.8545 29.7665C28.8895 29.8031 28.9295 29.8365 28.9712 29.8648C28.9845 29.8748 28.9995 29.8831 29.0145 29.8915C29.0528 29.9131 29.0945 29.9315 29.1361 29.9465C29.1461 29.9498 29.1561 29.9548 29.1661 29.9581H29.1678C29.2128 29.9698 29.2595 29.9781 29.3078 29.9815H29.3428C29.3561 29.9815 29.3695 29.9781 29.3828 29.9781V29.9765C29.4144 29.9748 29.4461 29.9715 29.4778 29.9665C29.4911 29.9631 29.5061 29.9581 29.5211 29.9548L29.5194 29.9531C29.5511 29.9465 29.5811 29.9365 29.6094 29.9231C29.6144 29.9215 29.6194 29.9198 29.6244 29.9181C29.6378 29.9115 29.6478 29.9031 29.6611 29.8965C29.6828 29.8848 29.7044 29.8731 29.7228 29.8598C29.7411 29.8465 29.7561 29.8348 29.7711 29.8215C29.7861 29.8081 29.8044 29.7931 29.8194 29.7781L29.8177 29.7815C29.8327 29.7665 29.8461 29.7515 29.8594 29.7348C29.8727 29.7181 29.8861 29.6998 29.8977 29.6815C29.9094 29.6648 29.9177 29.6482 29.9277 29.6315C29.9394 29.6115 29.9494 29.5898 29.9577 29.5682C29.9644 29.5515 29.9711 29.5332 29.9761 29.5165C29.9811 29.4998 29.9894 29.4715 29.9944 29.4482C29.9994 29.4248 30.0011 29.4082 30.0027 29.3882C30.0027 29.3765 30.0077 29.3648 30.0077 29.3515L30.5277 19.8958H30.5294C30.5344 19.7875 30.5144 19.6792 30.4694 19.5808L30.0344 18.6376H30.0328C31.2793 17.6877 32.2809 16.4562 32.9558 15.043C33.4008 15.7329 33.929 16.5145 34.4757 17.3228C36.0705 19.6825 38.0553 22.6189 38.4636 24.0937C38.7069 24.9803 39.0386 26.1585 39.3652 27.3184C39.8535 29.0566 40.4601 31.2114 40.5268 31.528V31.5297C40.5434 31.6396 40.5768 31.748 40.6251 31.8496C40.7868 32.2446 41.275 33.4491 40.7734 34.5124ZM26.4 29.4044C26.6133 29.7044 26.545 30.121 26.2467 30.336C25.9467 30.5493 25.5301 30.481 25.3167 30.1826C23.8669 28.1628 20.3572 29.4444 20.3223 29.4577L20.3206 29.4561C19.9756 29.5861 19.5923 29.4111 19.464 29.0661C19.3357 28.7211 19.5107 28.3362 19.8556 28.2079C20.0373 28.1395 24.3616 26.5663 26.4 29.4044ZM31.2396 10.8347C31.243 13.0878 30.1814 15.211 28.3783 16.5608C26.5751 17.9124 24.2404 18.334 22.0787 17.6991C19.9173 17.0625 18.1808 15.4443 17.3957 13.333C16.6108 11.2215 16.8674 8.86196 18.0889 6.9686C19.3105 5.07545 21.3519 3.86892 23.6001 3.71226C25.8482 3.55728 28.0378 4.4705 29.5097 6.17866C29.7497 6.45697 29.718 6.87858 29.4397 7.11856C29.1614 7.35854 28.7398 7.32854 28.4998 7.04857C26.565 4.81212 23.2536 4.39718 20.8274 6.08866C18.401 7.78014 17.646 11.0315 19.0759 13.6194C20.5057 16.2075 23.6604 17.2991 26.3835 16.1459C29.1066 14.9927 30.5181 11.9679 29.6549 9.13984C29.6032 8.96985 29.6199 8.78821 29.7032 8.63156C29.7865 8.47491 29.9282 8.35825 30.0965 8.30659C30.4481 8.19826 30.8214 8.39658 30.9297 8.74823C31.1364 9.42481 31.2413 10.1281 31.2396 10.8347ZM21.5441 10.8347C21.5441 11.8696 22.1674 12.8028 23.124 13.1995C24.0805 13.5961 25.1821 13.3761 25.9137 12.6445C26.6453 11.9129 26.8653 10.8113 26.4687 9.85476C26.072 8.89818 25.1388 8.27493 24.1039 8.27493C23.4239 8.27493 22.774 8.5449 22.2941 9.02485C21.8124 9.5048 21.5441 10.1547 21.5441 10.8347ZM25.3271 10.8347C25.3271 11.3296 25.0288 11.7762 24.5705 11.9662C24.1122 12.1562 23.5856 12.0512 23.2357 11.7012C22.8857 11.3496 22.7807 10.823 22.9707 10.3664C23.1607 9.90809 23.6073 9.60979 24.1022 9.60979C24.7771 9.60979 25.3254 10.1581 25.3271 10.8347Z" fill="url(#paint0_linear_287_1508)"/>
<path d="M31.2413 10.833L31.2396 10.8347M31.2396 10.8347C31.243 13.0878 30.1814 15.211 28.3783 16.5608C26.5751 17.9124 24.2404 18.334 22.0787 17.6991C19.9173 17.0624 18.1808 15.4443 17.3957 13.333C16.6108 11.2215 16.8674 8.86196 18.0889 6.9686C19.3105 5.07545 21.3519 3.86892 23.6001 3.71226C25.8482 3.55728 28.0378 4.4705 29.5097 6.17866C29.7497 6.45697 29.718 6.87858 29.4397 7.11856C29.1614 7.35854 28.7398 7.32854 28.4998 7.04857C26.565 4.81212 23.2536 4.39718 20.8274 6.08866C18.401 7.78014 17.646 11.0315 19.0759 13.6194C20.5057 16.2075 23.6604 17.2991 26.3835 16.1459C29.1066 14.9927 30.5181 11.9679 29.6549 9.13984C29.6032 8.96985 29.6199 8.78821 29.7032 8.63156C29.7865 8.47491 29.9282 8.35825 30.0965 8.30659C30.4481 8.19826 30.8214 8.39658 30.9297 8.74823C31.1364 9.42481 31.2413 10.1281 31.2396 10.8347ZM21.5441 10.833V10.8347M21.5441 10.8347C21.5441 11.8696 22.1674 12.8028 23.124 13.1995C24.0805 13.5961 25.1821 13.3761 25.9137 12.6445C26.6453 11.9129 26.8653 10.8113 26.4687 9.85476C26.072 8.89818 25.1388 8.27493 24.1039 8.27493C23.4239 8.27493 22.774 8.5449 22.2941 9.02485C21.8124 9.5048 21.5441 10.1547 21.5441 10.8347ZM25.3271 10.833V10.8347M25.3271 10.8347C25.3271 11.3296 25.0288 11.7762 24.5705 11.9662C24.1122 12.1562 23.5856 12.0512 23.2357 11.7012C22.8857 11.3496 22.7807 10.823 22.9707 10.3664C23.1607 9.90809 23.6073 9.60979 24.1022 9.60979C24.7771 9.60979 25.3254 10.1581 25.3271 10.8347ZM41.8596 31.346L41.8379 31.291C41.7829 31.0193 41.5613 30.2061 40.648 26.9565C40.323 25.7983 39.9931 24.6217 39.7481 23.7384C39.2831 22.0519 37.3167 19.1424 35.5802 16.5758C34.7902 15.4076 34.0436 14.3011 33.5454 13.4661H33.5437C34.367 10.5264 33.7754 7.37009 31.9439 4.92852C30.1124 2.48541 27.2476 1.03391 24.1947 1.00059C21.1417 0.967256 18.2471 2.35546 16.3623 4.75689C14.4775 7.15831 13.8175 10.3013 14.5758 13.2578C15.334 16.2158 17.4238 18.6525 20.232 19.8521C23.04 21.0504 26.2465 20.8737 28.9061 19.3755L29.1877 19.9855L28.7994 27.0529C26.553 23.9649 23.2567 23.2799 18.9722 25.0181C16.1791 22.9117 12.6513 22.0251 9.19307 22.565C8.15483 22.735 7.10163 22.8167 6.04838 22.8067C4.70016 22.775 3.39865 23.2966 2.4454 24.2515C1.50218 25.1831 0.980546 26.4597 1.00056 27.7845L1.05055 31.8641C1.07722 34.7322 2.44207 37.4251 4.74183 39.1402C4.74683 39.1435 4.75017 39.1485 4.75517 39.1518C4.76017 39.1552 4.7635 39.1552 4.76683 39.1585C6.35336 40.3517 8.28648 40.9967 10.2711 40.9933L12.8742 41H12.8726C13.1042 41 13.3175 40.8817 13.4392 40.685L14.7974 38.5069C15.084 38.047 15.6506 37.8486 16.1622 38.0286C26.1977 41.4933 33.249 39.2635 37.9132 37.787C38.1882 37.702 38.4565 37.617 38.7165 37.5337C40.353 37.0237 41.4495 36.1988 41.9778 35.0789C42.7311 33.489 42.0745 31.8759 41.8596 31.346ZM15.629 10.8347C15.629 8.58828 16.5223 6.43365 18.1104 4.84362C19.7003 3.25543 21.855 2.36387 24.1015 2.36387C26.3496 2.36387 28.5043 3.25714 30.0926 4.84695C31.6808 6.43515 32.574 8.5899 32.5723 10.838C32.5723 13.0845 31.6808 15.2391 30.0909 16.8274C28.5027 18.4156 26.348 19.3088 24.1015 19.3088C21.8534 19.3072 19.7005 18.4122 18.1122 16.8241C16.524 15.2342 15.6307 13.0811 15.629 10.8347ZM40.7734 34.5124C40.4101 35.2806 39.5851 35.8689 38.3203 36.2622C38.0587 36.3439 37.7887 36.4289 37.5104 36.5188C33.0125 37.942 26.2147 40.0902 16.596 36.7705V36.7688C15.4961 36.3839 14.2779 36.8138 13.6646 37.8037L12.5047 39.6685L10.2732 39.6619C8.79506 39.6635 7.34518 39.2453 6.0953 38.457C6.85691 37.5071 8.21677 36.0406 9.31998 35.724C11.3915 35.1324 13.3946 31.6894 13.6161 31.2994V31.2978C13.7977 30.9778 13.6861 30.5712 13.3661 30.3895C13.0445 30.2079 12.6379 30.3195 12.4562 30.6395C11.7213 31.9327 10.1214 34.1075 8.95324 34.4408C7.38339 34.8891 5.78688 36.6956 5.02864 37.6522C3.36382 36.1806 2.40225 34.0709 2.38224 31.8479L2.33225 27.7683C2.31725 26.8034 2.69721 25.8752 3.38379 25.1969C4.08205 24.4987 5.03696 24.1171 6.02353 24.1404C7.15506 24.1537 8.28498 24.0687 9.40154 23.8837C12.6079 23.4038 15.8709 24.272 18.4123 26.2851C18.4273 26.2985 18.4439 26.3085 18.4589 26.3201C18.4739 26.3318 18.4906 26.3451 18.5089 26.3568C18.5273 26.3685 18.5523 26.3785 18.5706 26.3885C18.5906 26.3985 18.6073 26.4068 18.6256 26.4135C18.6439 26.4201 18.6656 26.4251 18.6873 26.4301C18.7089 26.4368 18.7306 26.4418 18.7522 26.4468C18.7689 26.4501 18.7872 26.4501 18.8039 26.4518L18.8056 26.4501C18.8306 26.4535 18.8572 26.4551 18.8839 26.4535C18.8972 26.4535 18.9122 26.4501 18.9272 26.4485L18.9256 26.4501C18.9556 26.4468 18.9855 26.4435 19.0139 26.4368C19.0255 26.4335 19.0355 26.4301 19.0472 26.4268C19.0739 26.4201 19.1005 26.4118 19.1255 26.4018C23.7416 24.4037 26.7962 25.4202 28.7395 29.5965C28.7429 29.6048 28.7495 29.6098 28.7528 29.6165C28.7762 29.6632 28.8045 29.7081 28.8378 29.7481L28.8528 29.7681L28.8545 29.7665C28.8895 29.8031 28.9295 29.8365 28.9712 29.8648C28.9845 29.8748 28.9995 29.8831 29.0145 29.8915C29.0528 29.9131 29.0945 29.9315 29.1361 29.9465C29.1461 29.9498 29.1561 29.9548 29.1661 29.9581H29.1678C29.2128 29.9698 29.2595 29.9781 29.3078 29.9815H29.3428C29.3561 29.9815 29.3695 29.9781 29.3828 29.9781V29.9765C29.4145 29.9748 29.4461 29.9715 29.4778 29.9665C29.4911 29.9631 29.5061 29.9581 29.5211 29.9548L29.5194 29.9531C29.5511 29.9465 29.5811 29.9365 29.6094 29.9231C29.6144 29.9215 29.6194 29.9198 29.6244 29.9181C29.6378 29.9115 29.6478 29.9031 29.6611 29.8965C29.6828 29.8848 29.7044 29.8731 29.7228 29.8598C29.7411 29.8465 29.7561 29.8348 29.7711 29.8215C29.7861 29.8081 29.8044 29.7931 29.8194 29.7781L29.8177 29.7815C29.8327 29.7665 29.8461 29.7515 29.8594 29.7348C29.8727 29.7181 29.8861 29.6998 29.8977 29.6815C29.9094 29.6648 29.9177 29.6482 29.9277 29.6315C29.9394 29.6115 29.9494 29.5898 29.9577 29.5682C29.9644 29.5515 29.9711 29.5332 29.9761 29.5165C29.9811 29.4998 29.9894 29.4715 29.9944 29.4482C29.9994 29.4248 30.0011 29.4082 30.0027 29.3882C30.0027 29.3765 30.0077 29.3648 30.0077 29.3515L30.5277 19.8958H30.5294C30.5344 19.7875 30.5144 19.6792 30.4694 19.5808L30.0344 18.6376H30.0328C31.2793 17.6877 32.2809 16.4562 32.9558 15.043C33.4008 15.7329 33.929 16.5145 34.4757 17.3228C36.0705 19.6825 38.0553 22.6189 38.4636 24.0937C38.7069 24.9803 39.0386 26.1585 39.3652 27.3184C39.8535 29.0566 40.4601 31.2114 40.5268 31.528V31.5297C40.5434 31.6396 40.5768 31.748 40.6251 31.8496C40.7868 32.2446 41.275 33.4491 40.7734 34.5124ZM26.4 29.4044C26.6133 29.7044 26.545 30.121 26.2467 30.336C25.9467 30.5493 25.5301 30.481 25.3167 30.1826C23.8669 28.1628 20.3572 29.4444 20.3223 29.4577L20.3206 29.4561C19.9756 29.586 19.5923 29.4111 19.464 29.0661C19.3357 28.7211 19.5107 28.3362 19.8556 28.2079C20.0373 28.1395 24.3616 26.5663 26.4 29.4044Z" stroke="url(#paint1_linear_287_1508)"/>
</g>
<defs>
<linearGradient id="paint0_linear_287_1508" x1="21.665" y1="1" x2="21.665" y2="41" gradientUnits="userSpaceOnUse">
<stop stop-color="#D7FD44"/>
<stop offset="1" stop-color="#5C6B20"/>
</linearGradient>
<linearGradient id="paint1_linear_287_1508" x1="21.665" y1="1" x2="21.665" y2="41" gradientUnits="userSpaceOnUse">
<stop stop-color="#D7FD44"/>
<stop offset="1" stop-color="#5C6B20"/>
</linearGradient>
</defs>
</svg>
