<svg width="157" height="157" viewBox="0 0 157 157" fill="none" xmlns="http://www.w3.org/2000/svg">
<path id="Star 11" d="M77.5642 1.05436C77.8894 0.191114 79.1105 0.19111 79.4358 1.05436L90.5352 30.5148C90.7766 31.1554 91.5758 31.3696 92.1051 30.9354L116.448 10.9717C117.161 10.3867 118.218 10.9972 118.069 11.9074L112.951 42.9706C112.839 43.6461 113.424 44.2312 114.1 44.1199L145.163 39.002C146.073 38.8521 146.684 39.9096 146.099 40.6229L126.135 64.9654C125.701 65.4948 125.915 66.294 126.556 66.5354L156.016 77.6348C156.879 77.96 156.879 79.1811 156.016 79.5063L126.556 90.6057C125.915 90.8471 125.701 91.6463 126.135 92.1757L146.099 116.518C146.684 117.232 146.073 118.289 145.163 118.139L114.1 113.021C113.424 112.91 112.839 113.495 112.951 114.17L118.069 145.234C118.218 146.144 117.161 146.754 116.448 146.169L92.1051 126.206C91.5758 125.772 90.7766 125.986 90.5352 126.626L79.4358 156.087C79.1106 156.95 77.8895 156.95 77.5642 156.087L66.4648 126.626C66.2235 125.986 65.4242 125.772 64.8949 126.206L40.5523 146.169C39.839 146.754 38.7815 146.144 38.9315 145.234L44.0493 114.17C44.1606 113.495 43.5756 112.91 42.9001 113.021L11.8369 118.139C10.9267 118.289 10.3161 117.232 10.9011 116.518L30.8649 92.1757C31.299 91.6463 31.0849 90.8471 30.4442 90.6057L0.983805 79.5063C0.120557 79.1811 0.120553 77.96 0.983801 77.6348L30.4442 66.5354C31.0849 66.294 31.299 65.4948 30.8649 64.9654L10.9011 40.6229C10.3161 39.9096 10.9267 38.8521 11.8369 39.002L42.9001 44.1199C43.5756 44.2312 44.1606 43.6461 44.0493 42.9706L38.9315 11.9075C38.7815 10.9972 39.839 10.3867 40.5523 10.9717L64.8949 30.9354C65.4242 31.3696 66.2234 31.1554 66.4648 30.5148L77.5642 1.05436Z" fill="#D7FD44"/>
</svg>
