<svg width="157" height="58" viewBox="0 0 157 58" fill="none" xmlns="http://www.w3.org/2000/svg">
<path d="M3.20816 7.6H0.448156V5.2H8.60816V7.6H5.84816V22H3.20816V7.6ZM9.88634 5.2H13.7983C15.1583 5.2 16.1503 5.52 16.7743 6.16C17.3983 6.784 17.7103 7.752 17.7103 9.064V10.096C17.7103 11.84 17.1343 12.944 15.9823 13.408V13.456C16.6223 13.648 17.0703 14.04 17.3263 14.632C17.5983 15.224 17.7343 16.016 17.7343 17.008V19.96C17.7343 20.44 17.7503 20.832 17.7823 21.136C17.8143 21.424 17.8943 21.712 18.0223 22H15.3343C15.2383 21.728 15.1743 21.472 15.1423 21.232C15.1103 20.992 15.0943 20.56 15.0943 19.936V16.864C15.0943 16.096 14.9663 15.56 14.7103 15.256C14.4703 14.952 14.0463 14.8 13.4383 14.8H12.5263V22H9.88634V5.2ZM13.4863 12.4C14.0143 12.4 14.4063 12.264 14.6623 11.992C14.9343 11.72 15.0703 11.264 15.0703 10.624V9.328C15.0703 8.72 14.9583 8.28 14.7343 8.008C14.5263 7.736 14.1903 7.6 13.7263 7.6H12.5263V12.4H13.4863ZM21.606 5.2H25.182L27.918 22H25.278L24.798 18.664V18.712H21.798L21.318 22H18.87L21.606 5.2ZM24.486 16.432L23.31 8.128H23.262L22.11 16.432H24.486ZM29.1988 5.2H32.5108L35.0788 15.256H35.1268V5.2H37.4788V22H34.7668L31.5988 9.736H31.5508V22H29.1988V5.2ZM42.873 22.24C41.593 22.24 40.625 21.88 39.969 21.16C39.313 20.424 38.985 19.376 38.985 18.016V17.056H41.481V18.208C41.481 19.296 41.937 19.84 42.849 19.84C43.297 19.84 43.633 19.712 43.857 19.456C44.097 19.184 44.217 18.752 44.217 18.16C44.217 17.456 44.057 16.84 43.737 16.312C43.417 15.768 42.825 15.12 41.961 14.368C40.873 13.408 40.113 12.544 39.681 11.776C39.249 10.992 39.033 10.112 39.033 9.136C39.033 7.808 39.369 6.784 40.041 6.064C40.713 5.328 41.689 4.96 42.969 4.96C44.233 4.96 45.185 5.328 45.825 6.064C46.481 6.784 46.809 7.824 46.809 9.184V9.88H44.313V9.016C44.313 8.44 44.201 8.024 43.977 7.768C43.753 7.496 43.425 7.36 42.993 7.36C42.113 7.36 41.673 7.896 41.673 8.968C41.673 9.576 41.833 10.144 42.153 10.672C42.489 11.2 43.089 11.84 43.953 12.592C45.057 13.552 45.817 14.424 46.233 15.208C46.649 15.992 46.857 16.912 46.857 17.968C46.857 19.344 46.513 20.4 45.825 21.136C45.153 21.872 44.169 22.24 42.873 22.24ZM48.3707 5.2H55.3547V7.6H51.0107V12.28H54.4187V14.68H51.0107V22H48.3707V5.2ZM60.4367 22.24C59.1407 22.24 58.1487 21.872 57.4607 21.136C56.7727 20.4 56.4287 19.36 56.4287 18.016V9.184C56.4287 7.84 56.7727 6.8 57.4607 6.064C58.1487 5.328 59.1407 4.96 60.4367 4.96C61.7327 4.96 62.7247 5.328 63.4127 6.064C64.1007 6.8 64.4447 7.84 64.4447 9.184V18.016C64.4447 19.36 64.1007 20.4 63.4127 21.136C62.7247 21.872 61.7327 22.24 60.4367 22.24ZM60.4367 19.84C61.3487 19.84 61.8047 19.288 61.8047 18.184V9.016C61.8047 7.912 61.3487 7.36 60.4367 7.36C59.5247 7.36 59.0687 7.912 59.0687 9.016V18.184C59.0687 19.288 59.5247 19.84 60.4367 19.84ZM66.2301 5.2H70.1421C71.5021 5.2 72.4941 5.52 73.1181 6.16C73.7421 6.784 74.0541 7.752 74.0541 9.064V10.096C74.0541 11.84 73.4781 12.944 72.3261 13.408V13.456C72.9661 13.648 73.4141 14.04 73.6701 14.632C73.9421 15.224 74.0781 16.016 74.0781 17.008V19.96C74.0781 20.44 74.0941 20.832 74.1261 21.136C74.1581 21.424 74.2381 21.712 74.3661 22H71.6781C71.5821 21.728 71.5181 21.472 71.4861 21.232C71.4541 20.992 71.4381 20.56 71.4381 19.936V16.864C71.4381 16.096 71.3101 15.56 71.0541 15.256C70.8141 14.952 70.3901 14.8 69.7821 14.8H68.8701V22H66.2301V5.2ZM69.8301 12.4C70.3581 12.4 70.7501 12.264 71.0061 11.992C71.2781 11.72 71.4141 11.264 71.4141 10.624V9.328C71.4141 8.72 71.3021 8.28 71.0781 8.008C70.8701 7.736 70.5341 7.6 70.0701 7.6H68.8701V12.4H69.8301ZM75.9098 5.2H79.6778L81.3578 17.224H81.4058L83.0858 5.2H86.8538V22H84.3578V9.28H84.3098L82.3898 22H80.1818L78.2618 9.28H78.2138V22H75.9098V5.2ZM4.90297 34.2H7.44697L8.62297 47.112H8.67097L9.91897 34.2H12.799L14.047 47.112H14.095L15.271 34.2H17.551L15.847 51H12.559L11.359 39.672H11.311L10.111 51H6.60697L4.90297 34.2ZM18.8863 34.2H21.5263V51H18.8863V34.2ZM25.5675 36.6H22.8075V34.2H30.9675V36.6H28.2075V51H25.5675V36.6ZM32.2457 34.2H34.8857V41.04H37.7177V34.2H40.3577V51H37.7177V43.44H34.8857V51H32.2457V34.2ZM48.2316 36.6H45.4716V34.2H53.6316V36.6H50.8716V51H48.2316V36.6ZM58.7498 51.24C57.4698 51.24 56.4938 50.88 55.8218 50.16C55.1498 49.424 54.8138 48.376 54.8138 47.016V34.2H57.4538V47.208C57.4538 47.784 57.5658 48.2 57.7898 48.456C58.0298 48.712 58.3658 48.84 58.7978 48.84C59.2298 48.84 59.5578 48.712 59.7818 48.456C60.0218 48.2 60.1418 47.784 60.1418 47.208V34.2H62.6858V47.016C62.6858 48.376 62.3498 49.424 61.6778 50.16C61.0058 50.88 60.0298 51.24 58.7498 51.24ZM64.566 34.2H67.878L70.446 44.256H70.494V34.2H72.846V51H70.134L66.966 38.736H66.918V51H64.566V34.2ZM76.8482 34.2H80.4242L83.1602 51H80.5202L80.0402 47.664V47.712H77.0402L76.5602 51H74.1122L76.8482 34.2ZM79.7282 45.432L78.5522 37.128H78.5042L77.3522 45.432H79.7282Z" fill="url(#paint0_linear_729_1130)"/>
<path d="M155.074 41.9324L155.047 41.8637C154.979 41.5242 154.702 40.5076 153.56 36.4456C153.154 34.9978 152.741 33.5271 152.435 32.423C151.854 30.3149 149.396 26.678 147.225 23.4698C146.238 22.0095 145.305 20.6263 144.682 19.5827H144.68C145.709 15.908 144.969 11.9626 142.68 8.91065C140.39 5.85676 136.81 4.04238 132.993 4.00073C129.177 3.95907 125.559 5.69433 123.203 8.69611C120.847 11.6979 120.022 15.6266 120.97 19.3223C121.918 23.0198 124.53 26.0656 128.04 27.5652C131.55 29.0629 135.558 28.8421 138.883 26.9694L139.235 27.7318L138.749 36.5662C135.941 32.7061 131.821 31.8499 126.465 34.0227C122.974 31.3896 118.564 30.2814 114.241 30.9563C112.944 31.1688 111.627 31.2709 110.31 31.2584C108.625 31.2188 106.998 31.8708 105.807 33.0644C104.628 34.2289 103.976 35.8246 104.001 37.4806L104.063 42.5801C104.097 46.1652 105.803 49.5314 108.677 51.6752C108.684 51.6794 108.688 51.6856 108.694 51.6898C108.7 51.694 108.704 51.694 108.709 51.6981C110.692 53.1897 113.108 53.9958 115.589 53.9917L118.843 54H118.841C119.13 54 119.397 53.8521 119.549 53.6063L121.247 50.8836C121.605 50.3087 122.313 50.0608 122.953 50.2858C135.497 54.6166 144.311 51.8293 150.142 49.9837C150.485 49.8775 150.821 49.7712 151.146 49.6671C153.191 49.0296 154.562 47.9985 155.222 46.5986C156.164 44.6113 155.343 42.5949 155.074 41.9324ZM122.286 16.2934C122.286 13.4853 123.403 10.7921 125.388 8.80453C127.375 6.81929 130.069 5.70484 132.877 5.70484C135.687 5.70484 138.38 6.82142 140.366 8.80869C142.351 10.7939 143.468 13.4874 143.465 16.2975C143.465 19.1056 142.351 21.7989 140.364 23.7843C138.378 25.7695 135.685 26.886 132.877 26.886C130.067 26.884 127.376 25.7653 125.39 23.7801C123.405 21.7928 122.288 19.1014 122.286 16.2934ZM153.717 45.8905C153.263 46.8508 152.231 47.5861 150.65 48.0778C150.323 48.1798 149.986 48.2861 149.638 48.3986C144.016 50.1775 135.518 52.8627 123.495 48.7131V48.711C122.12 48.2298 120.597 48.7673 119.831 50.0047L118.381 52.3357L115.592 52.3274C113.744 52.3294 111.931 51.8066 110.369 50.8213C111.321 49.6339 113.021 47.8007 114.4 47.405C116.989 46.6655 119.493 42.3617 119.77 41.8743V41.8722C119.997 41.4723 119.858 40.964 119.458 40.7369C119.056 40.5099 118.547 40.6494 118.32 41.0494C117.402 42.6659 115.402 45.3844 113.942 45.801C111.979 46.3614 109.984 48.6195 109.036 49.8152C106.955 47.9758 105.753 45.3386 105.728 42.5599L105.665 37.4604C105.647 36.2543 106.122 35.094 106.98 34.2462C107.853 33.3734 109.046 32.8963 110.279 32.9254C111.694 32.9421 113.106 32.8359 114.502 32.6047C118.51 32.0047 122.589 33.09 125.765 35.6064C125.784 35.6231 125.805 35.6356 125.824 35.6502C125.842 35.6648 125.863 35.6814 125.886 35.696C125.909 35.7106 125.94 35.7231 125.963 35.7356C125.988 35.7481 126.009 35.7585 126.032 35.7668C126.055 35.7752 126.082 35.7814 126.109 35.7877C126.136 35.796 126.163 35.8022 126.19 35.8085C126.211 35.8127 126.234 35.8127 126.255 35.8147L126.257 35.8127C126.288 35.8168 126.322 35.8189 126.355 35.8168C126.372 35.8168 126.39 35.8127 126.409 35.8106L126.407 35.8127C126.444 35.8085 126.482 35.8043 126.517 35.796C126.532 35.7918 126.544 35.7877 126.559 35.7835C126.592 35.7752 126.626 35.7648 126.657 35.7523C132.427 33.2546 136.245 34.5253 138.674 39.7456C138.679 39.756 138.687 39.7623 138.691 39.7706C138.72 39.8289 138.756 39.8852 138.797 39.9352L138.816 39.9602L138.818 39.9581C138.862 40.0039 138.912 40.0456 138.964 40.081C138.981 40.0935 138.999 40.1039 139.018 40.1143C139.066 40.1414 139.118 40.1643 139.17 40.1831C139.183 40.1872 139.195 40.1935 139.208 40.1977H139.21C139.266 40.2122 139.324 40.2227 139.385 40.2268H139.428C139.445 40.2268 139.462 40.2227 139.478 40.2227V40.2206C139.518 40.2185 139.558 40.2143 139.597 40.2081C139.614 40.2039 139.633 40.1977 139.651 40.1935L139.649 40.1914C139.689 40.1831 139.726 40.1706 139.762 40.1539C139.768 40.1518 139.774 40.1497 139.781 40.1477C139.797 40.1393 139.81 40.1289 139.826 40.1206C139.853 40.106 139.881 40.0914 139.903 40.0747C139.926 40.0581 139.945 40.0435 139.964 40.0268C139.983 40.0102 140.006 39.9914 140.024 39.9727L140.022 39.9768C140.041 39.9581 140.058 39.9394 140.074 39.9185C140.091 39.8977 140.108 39.8748 140.122 39.8519C140.137 39.831 140.147 39.8102 140.16 39.7894C140.174 39.7644 140.187 39.7373 140.197 39.7102C140.205 39.6894 140.214 39.6665 140.22 39.6456C140.226 39.6248 140.237 39.5894 140.243 39.5602C140.249 39.5311 140.251 39.5102 140.253 39.4852C140.253 39.4706 140.26 39.4561 140.26 39.4394L140.91 27.6198H140.912C140.918 27.4844 140.893 27.349 140.837 27.2261L140.293 26.047H140.291C141.849 24.8596 143.101 23.3202 143.945 21.5537C144.501 22.4161 145.161 23.3931 145.845 24.4035C147.838 27.3531 150.319 31.0236 150.83 32.8671C151.134 33.9754 151.548 35.4481 151.957 36.898C152.567 39.0707 153.325 41.7642 153.408 42.16V42.1621C153.429 42.2996 153.471 42.435 153.531 42.562C153.733 43.0557 154.344 44.5614 153.717 45.8905ZM135.75 39.5055C136.017 39.8805 135.931 40.4012 135.558 40.67C135.183 40.9366 134.663 40.8512 134.396 40.4783C132.584 37.9535 128.197 39.5555 128.153 39.5722L128.151 39.5701C127.72 39.7326 127.24 39.5138 127.08 39.0826C126.92 38.6514 127.138 38.1702 127.57 38.0098C127.797 37.9244 133.202 35.9579 135.75 39.5055ZM141.8 16.2933C141.804 19.1097 140.477 21.7637 138.223 23.451C135.969 25.1405 133.05 25.6675 130.348 24.8738C127.647 24.0781 125.476 22.0553 124.495 19.4162C123.513 16.7769 123.834 13.8274 125.361 11.4608C126.888 9.09432 129.44 7.58615 132.25 7.39033C135.06 7.1966 137.797 8.33813 139.637 10.4733C139.937 10.8212 139.897 11.3482 139.55 11.6482C139.202 11.9482 138.675 11.9107 138.375 11.5607C135.956 8.76515 131.817 8.24648 128.784 10.3608C125.751 12.4752 124.808 16.5394 126.595 19.7743C128.382 23.0094 132.325 24.3738 135.729 22.9323C139.133 21.4908 140.898 17.7099 139.819 14.1748C139.754 13.9623 139.775 13.7353 139.879 13.5394C139.983 13.3436 140.16 13.1978 140.371 13.1332C140.81 12.9978 141.277 13.2457 141.412 13.6853C141.67 14.531 141.802 15.4101 141.8 16.2933ZM129.68 16.2933C129.68 17.587 130.459 18.7535 131.655 19.2493C132.851 19.7451 134.228 19.4701 135.142 18.5556C136.057 17.6412 136.332 16.2642 135.836 15.0684C135.34 13.8727 134.173 13.0937 132.88 13.0937C132.03 13.0937 131.218 13.4311 130.618 14.0311C130.016 14.631 129.68 15.4434 129.68 16.2933ZM134.409 16.2933C134.409 16.9121 134.036 17.4703 133.463 17.7078C132.89 17.9452 132.232 17.814 131.795 17.3765C131.357 16.937 131.226 16.2787 131.463 15.708C131.701 15.1351 132.259 14.7622 132.878 14.7622C133.721 14.7622 134.407 15.4476 134.409 16.2933Z" fill="url(#paint1_linear_729_1130)"/>
<path d="M141.802 16.2913L141.8 16.2933M141.8 16.2933C141.804 19.1097 140.477 21.7637 138.223 23.451C135.969 25.1405 133.05 25.6675 130.348 24.8738C127.647 24.0781 125.476 22.0553 124.495 19.4162C123.513 16.7769 123.834 13.8275 125.361 11.4608C126.888 9.09432 129.44 7.58615 132.25 7.39033C135.06 7.1966 137.797 8.33813 139.637 10.4733C139.937 10.8212 139.897 11.3482 139.55 11.6482C139.202 11.9482 138.675 11.9107 138.375 11.5607C135.956 8.76515 131.817 8.24648 128.784 10.3608C125.751 12.4752 124.808 16.5394 126.595 19.7743C128.382 23.0094 132.325 24.3738 135.729 22.9323C139.133 21.4908 140.898 17.7099 139.819 14.1748C139.754 13.9623 139.775 13.7353 139.879 13.5394C139.983 13.3436 140.16 13.1978 140.371 13.1332C140.81 12.9978 141.277 13.2457 141.412 13.6853C141.67 14.531 141.802 15.4101 141.8 16.2933ZM129.68 16.2913V16.2933M129.68 16.2933C129.68 17.587 130.459 18.7535 131.655 19.2493C132.851 19.7451 134.228 19.4701 135.142 18.5556C136.057 17.6412 136.332 16.2642 135.836 15.0684C135.34 13.8727 134.173 13.0937 132.88 13.0937C132.03 13.0937 131.218 13.4311 130.618 14.0311C130.016 14.631 129.68 15.4434 129.68 16.2933ZM134.409 16.2913V16.2933M134.409 16.2933C134.409 16.9121 134.036 17.4703 133.463 17.7078C132.89 17.9452 132.232 17.814 131.795 17.3765C131.357 16.937 131.226 16.2787 131.463 15.708C131.701 15.1351 132.259 14.7622 132.878 14.7622C133.721 14.7622 134.407 15.4476 134.409 16.2933ZM155.074 41.9324L155.047 41.8637C154.979 41.5242 154.702 40.5076 153.56 36.4456C153.154 34.9978 152.741 33.5271 152.435 32.423C151.854 30.3149 149.396 26.678 147.225 23.4698C146.238 22.0095 145.305 20.6263 144.682 19.5827H144.68C145.709 15.908 144.969 11.9626 142.68 8.91065C140.39 5.85676 136.809 4.04238 132.993 4.00073C129.177 3.95907 125.559 5.69433 123.203 8.69611C120.847 11.6979 120.022 15.6266 120.97 19.3223C121.918 23.0198 124.53 26.0656 128.04 27.5652C131.55 29.0629 135.558 28.8421 138.883 26.9694L139.235 27.7318L138.749 36.5662C135.941 32.7061 131.821 31.8499 126.465 34.0227C122.974 31.3896 118.564 30.2814 114.241 30.9563C112.944 31.1688 111.627 31.2709 110.31 31.2584C108.625 31.2188 106.998 31.8708 105.807 33.0644C104.628 34.2289 103.976 35.8246 104.001 37.4806L104.063 42.5801C104.097 46.1652 105.803 49.5314 108.677 51.6752C108.684 51.6794 108.688 51.6856 108.694 51.6898C108.7 51.694 108.704 51.694 108.709 51.6981C110.692 53.1897 113.108 53.9958 115.589 53.9917L118.843 54H118.841C119.13 54 119.397 53.8521 119.549 53.6063L121.247 50.8836C121.605 50.3087 122.313 50.0608 122.953 50.2858C135.497 54.6166 144.311 51.8293 150.142 49.9837C150.485 49.8775 150.821 49.7712 151.146 49.6671C153.191 49.0296 154.562 47.9985 155.222 46.5986C156.164 44.6113 155.343 42.5949 155.074 41.9324ZM122.286 16.2934C122.286 13.4853 123.403 10.7921 125.388 8.80453C127.375 6.81929 130.069 5.70484 132.877 5.70484C135.687 5.70484 138.38 6.82142 140.366 8.80869C142.351 10.7939 143.468 13.4874 143.465 16.2975C143.465 19.1056 142.351 21.7989 140.364 23.7843C138.378 25.7695 135.685 26.886 132.877 26.886C130.067 26.884 127.376 25.7653 125.39 23.7801C123.405 21.7928 122.288 19.1014 122.286 16.2934ZM153.717 45.8905C153.263 46.8508 152.231 47.5861 150.65 48.0778C150.323 48.1798 149.986 48.2861 149.638 48.3986C144.016 50.1775 135.518 52.8627 123.495 48.7131V48.711C122.12 48.2298 120.597 48.7673 119.831 50.0047L118.381 52.3357L115.592 52.3273C113.744 52.3294 111.931 51.8066 110.369 50.8213C111.321 49.6339 113.021 47.8007 114.4 47.405C116.989 46.6655 119.493 42.3617 119.77 41.8743V41.8722C119.997 41.4723 119.858 40.964 119.458 40.7369C119.056 40.5099 118.547 40.6494 118.32 41.0494C117.402 42.6659 115.402 45.3844 113.942 45.801C111.979 46.3614 109.984 48.6195 109.036 49.8152C106.955 47.9758 105.753 45.3386 105.728 42.5599L105.665 37.4604C105.647 36.2543 106.122 35.094 106.98 34.2462C107.853 33.3734 109.046 32.8963 110.279 32.9254C111.694 32.9421 113.106 32.8359 114.502 32.6046C118.51 32.0047 122.589 33.09 125.765 35.6064C125.784 35.6231 125.805 35.6356 125.824 35.6502C125.842 35.6648 125.863 35.6814 125.886 35.696C125.909 35.7106 125.94 35.7231 125.963 35.7356C125.988 35.7481 126.009 35.7585 126.032 35.7668C126.055 35.7752 126.082 35.7814 126.109 35.7877C126.136 35.796 126.163 35.8022 126.19 35.8085C126.211 35.8127 126.234 35.8127 126.255 35.8147L126.257 35.8127C126.288 35.8168 126.322 35.8189 126.355 35.8168C126.372 35.8168 126.39 35.8127 126.409 35.8106L126.407 35.8127C126.444 35.8085 126.482 35.8043 126.517 35.796C126.532 35.7918 126.544 35.7877 126.559 35.7835C126.592 35.7752 126.626 35.7648 126.657 35.7523C132.427 33.2546 136.245 34.5253 138.674 39.7456C138.679 39.756 138.687 39.7623 138.691 39.7706C138.72 39.8289 138.756 39.8852 138.797 39.9352L138.816 39.9602L138.818 39.9581C138.862 40.0039 138.912 40.0456 138.964 40.081C138.981 40.0935 138.999 40.1039 139.018 40.1143C139.066 40.1414 139.118 40.1643 139.17 40.1831C139.183 40.1872 139.195 40.1935 139.208 40.1977H139.21C139.266 40.2122 139.324 40.2227 139.385 40.2268H139.428C139.445 40.2268 139.462 40.2227 139.478 40.2227V40.2206C139.518 40.2185 139.558 40.2143 139.597 40.2081C139.614 40.2039 139.633 40.1977 139.651 40.1935L139.649 40.1914C139.689 40.1831 139.726 40.1706 139.762 40.1539C139.768 40.1518 139.774 40.1497 139.781 40.1477C139.797 40.1393 139.81 40.1289 139.826 40.1206C139.853 40.106 139.881 40.0914 139.903 40.0747C139.926 40.0581 139.945 40.0435 139.964 40.0268C139.983 40.0102 140.006 39.9914 140.024 39.9727L140.022 39.9768C140.041 39.9581 140.058 39.9393 140.074 39.9185C140.091 39.8977 140.108 39.8748 140.122 39.8519C140.137 39.831 140.147 39.8102 140.16 39.7894C140.174 39.7644 140.187 39.7373 140.197 39.7102C140.205 39.6894 140.214 39.6665 140.22 39.6456C140.226 39.6248 140.237 39.5894 140.243 39.5602C140.249 39.531 140.251 39.5102 140.253 39.4852C140.253 39.4706 140.26 39.4561 140.26 39.4394L140.91 27.6198H140.912C140.918 27.4844 140.893 27.349 140.837 27.2261L140.293 26.047H140.291C141.849 24.8596 143.101 23.3202 143.945 21.5537C144.501 22.4161 145.161 23.3931 145.845 24.4035C147.838 27.3531 150.319 31.0236 150.83 32.8672C151.134 33.9754 151.548 35.4481 151.957 36.898C152.567 39.0707 153.325 41.7642 153.408 42.16V42.1621C153.429 42.2996 153.471 42.435 153.531 42.562C153.733 43.0557 154.344 44.5614 153.717 45.8905ZM135.75 39.5055C136.017 39.8805 135.931 40.4012 135.558 40.67C135.183 40.9366 134.663 40.8512 134.396 40.4783C132.584 37.9535 128.197 39.5555 128.153 39.5722L128.151 39.5701C127.72 39.7326 127.24 39.5138 127.08 39.0826C126.92 38.6514 127.138 38.1702 127.57 38.0098C127.797 37.9244 133.202 35.9579 135.75 39.5055Z" stroke="url(#paint2_linear_729_1130)"/>
<defs>
<linearGradient id="paint0_linear_729_1130" x1="44" y1="0" x2="44" y2="58" gradientUnits="userSpaceOnUse">
<stop stop-color="#D7FD44"/>
<stop offset="1" stop-color="#5C6B20"/>
</linearGradient>
<linearGradient id="paint1_linear_729_1130" x1="129.831" y1="4" x2="129.831" y2="54" gradientUnits="userSpaceOnUse">
<stop stop-color="#D7FD44"/>
<stop offset="1" stop-color="#5C6B20"/>
</linearGradient>
<linearGradient id="paint2_linear_729_1130" x1="129.831" y1="4" x2="129.831" y2="54" gradientUnits="userSpaceOnUse">
<stop stop-color="#D7FD44"/>
<stop offset="1" stop-color="#5C6B20"/>
</linearGradient>
</defs>
</svg>
