<svg width="26" height="26" viewBox="0 0 26 26" fill="none" xmlns="http://www.w3.org/2000/svg">
<path d="M20.4232 18.6361L25.8353 24.0482L24.0482 25.8353L18.6361 20.4232C16.6901 21.9801 14.2221 22.9115 11.538 22.9115C5.25986 22.9115 0.164551 17.8162 0.164551 11.538C0.164551 5.25986 5.25986 0.164551 11.538 0.164551C17.8162 0.164551 22.9115 5.25986 22.9115 11.538C22.9115 14.2221 21.9801 16.6901 20.4232 18.6361ZM17.8878 17.6984C19.4331 16.1058 20.384 13.9335 20.384 11.538C20.384 6.65058 16.4254 2.69199 11.538 2.69199C6.65058 2.69199 2.69199 6.65058 2.69199 11.538C2.69199 16.4254 6.65058 20.384 11.538 20.384C13.9335 20.384 16.1058 19.4331 17.6984 17.8878L17.8878 17.6984Z" fill="#C7C7C7"/>
</svg>
